<svg width="1228" height="383" viewBox="0 0 1228 383" fill="none" xmlns="http://www.w3.org/2000/svg" class="w-full h-auto max-w-[60px] md:max-w-[100px] lg:max-w-[100px] fill-blue-dark"><g clip-path="url(#clip0_10115_21064)"><path d="M663.46 297.25C651.01 297.12 638.7 295.32 627.85 292.04C614.62 288.15 597.25 279.95 589.5 262.97C585.88 255.43 585.6 246.69 588.79 241.68C590.55 238.92 593.18 237.54 596.62 237.58C598.41 237.6 600.41 238 602.56 238.78C607.29 240.35 613 243.51 619.04 246.86C629.7 252.76 641.77 259.45 653.47 260.47C655.01 260.72 656.81 260.87 658.64 260.89C668.25 260.99 677.25 257.66 681.58 252.4C684.17 249.25 685.11 245.46 684.28 241.46C680.56 226.42 661.78 216.66 645.21 208.05C640.9 205.81 636.83 203.7 633.36 201.64C606.79 188.15 582.64 161.76 594.15 127.95C598.92 114.91 616.42 84.42 675.39 84.08C692.99 84.26 716.86 87.64 731.28 102.73L731.54 103C737.61 108.82 742.4 121 739.87 128.7C738.64 132.45 735.87 134.57 731.4 135.2C723.13 135 715.06 130.92 706.51 126.59C699 122.79 691.23 118.86 682.6 117.16C679.88 116.45 676.58 116.04 673.18 116.01C668.94 115.97 658.48 116.54 652.85 122.75C650.16 125.73 649.04 129.45 649.52 133.82C652.43 148.3 673.96 158.18 688.2 164.71C741.83 187.35 750.61 210.39 752.13 229.95C753.1 246.36 748.16 260.41 737.44 271.65C721.88 287.98 694.23 297.54 663.47 297.22L663.46 297.25Z" fill="#302C62"></path><path d="M1084.36 235.6C1086.06 242.35 1087.63 249.57 1092.53 254.51C1095.62 257.62 1098.54 259 1101.29 259.07C1116.68 259.47 1126.48 218.66 1128.25 208.83C1132.87 183.22 1129.87 155.99 1117.38 132.94C1097.12 95.5501 1050.44 72.7701 1009.69 84.9501C1004.04 86.6401 998.068 89.3801 995.598 94.7401C990.888 104.98 1001.56 115.2 1010.45 122.13C1046.69 150.41 1073.14 191.01 1084.35 235.59L1084.36 235.6Z" fill="#302C62"></path><path d="M343.549 237.41C338.149 219.97 337.779 200.83 337.419 182.31C337.039 162.64 336.649 142.29 330.229 123.88C323.929 104.87 309.599 90.8701 290.879 85.4601C282.169 82.8101 273.339 81.4101 264.629 81.3201C248.229 81.1501 233.219 85.6501 221.279 94.2901C215.459 98.8001 212.179 103.54 212.509 106.96C213.009 112.12 219.159 113.2 223.099 114.68C228.679 116.77 234.229 118.99 239.529 121.73C245.789 124.98 252.679 129.16 257.149 134.75C272.859 154.35 273.069 182.34 273.989 206.19C274.809 227.64 275.589 247.9 283.589 263.75C290.819 278.06 302.359 286.91 322.319 290.09C327.339 290.69 331.979 291.02 336.109 291.07C342.349 291.13 352.489 291.28 357.129 286.26C358.659 284.6 359.569 282.39 359.649 280.14C359.939 272.24 354.559 263.36 351.299 256.46C348.329 250.18 345.259 243.68 343.559 237.4L343.549 237.41Z" fill="#302C62"></path><path d="M219.919 263.19C219.219 259.87 218.449 256.53 217.659 253.17C214.829 241.01 211.899 228.43 212.289 215.37C212.219 208.24 212.409 201.07 212.599 193.47C213.419 161.4 214.269 128.24 195.359 102.67C185.689 89.33 169.149 81.5601 149.969 81.3601C144.309 81.3001 138.639 81.92 132.999 83.21C126.049 84.44 119.249 86.9101 112.679 89.2901C105.789 91.7901 98.6693 94.38 91.2793 95.57C89.8193 95.79 88.3493 95.9 86.9193 95.88C85.4893 95.86 84.1193 95.71 82.7893 95.49C75.6193 93.89 72.0393 87.1601 72.0393 87.1601L71.9093 87.42C70.6993 85.84 69.2393 84.53 67.4193 83.64C63.8793 82.39 59.8993 81.7301 55.5793 81.6901C46.9693 81.6001 38.1293 83.9 30.3993 87.07C23.9293 89.27 17.3893 92.62 12.4993 97.1C6.30933 101.42 -6.94067 111.58 4.46933 119.08C11.4693 123.68 14.8493 147.33 14.6793 156.9C14.6393 161.08 14.5693 167.41 14.4893 175.11C14.4893 175.15 14.4693 175.2 14.4693 175.25C15.0593 196.45 14.0093 216.33 11.4293 230.83C10.3793 236.33 8.53933 241.81 6.75933 247.1C4.61933 253.46 2.60933 259.47 1.82933 265.57C0.989329 271.04 1.98933 275.36 4.88933 278.78C10.1193 284.94 21.5993 288.15 38.9993 288.33C45.6593 288.4 51.8693 288.03 57.0993 287.68C69.3393 286.57 77.0193 283.58 80.5693 278.55C85.4093 271.7 82.6793 261.09 79.5193 248.8C77.4493 240.73 75.2993 232.39 74.9093 223.76C74.8393 220.92 74.7393 217.93 74.6393 214.84C73.7193 186.93 72.4493 148.71 92.6593 129.87C99.6893 123.52 108.439 119.93 116.659 120.01C120.199 120.05 123.599 120.75 126.879 122.15C154.909 136.02 153.149 178.56 151.979 206.71L151.899 208.75C151.819 216.92 150.369 226.17 148.979 235.11C147.139 246.93 145.229 259.15 146.619 268.07C150.529 286.39 171.759 289.34 184.059 289.46C191.939 289.54 200.499 288.47 207.569 286.51C218.299 283.61 222.459 275.86 219.919 263.41L219.879 263.14L219.919 263.19Z" fill="#302C62"></path><path d="M1227.17 102.61C1226.06 99.4701 1223.62 97.1801 1219.7 95.6101C1213.55 93.0901 1205.88 91.6001 1198.64 91.5201C1188.43 91.4101 1178.56 93.8001 1172.06 102.3C1160.6 117.28 1166.69 138.14 1163.57 155.35C1159.92 175.5 1150.64 195.54 1142.96 214.47C1134.37 235.64 1125.07 256.54 1114.98 277.05C1113.13 280.43 1111.37 283.79 1109.64 287.08C1099.56 306.32 1094.62 319.25 1076.14 325.44C1072.27 326.52 1068.12 326.97 1062.69 326.91C1060.23 326.88 1057.76 326.76 1055.29 326.63C1052.89 326.51 1050.5 326.38 1048.12 326.36C1046.77 326.35 1045.42 326.36 1043.93 326.44C1036.63 326.37 1029.99 329.18 1025.7 334.16C1021.52 339.01 1019.81 349.3 1020.94 356.32C1023.07 368.41 1033.87 382.61 1057.27 382.85C1065.48 382.94 1073.61 380.93 1080.24 377.17C1110.36 361.67 1132.64 316.39 1148.91 283.34L1151.64 277.8C1162.12 255.99 1173.55 230.66 1184.68 204.55L1185.69 202.14C1195.86 177.86 1206.37 152.76 1219.57 130.16C1224.13 122.01 1229.87 110.29 1227.15 102.6L1227.17 102.61Z" fill="#302C62"></path><path d="M464.489 82.3201H462.689C431.159 82.2501 403.539 95.3601 384.909 119.23C363.779 146.29 356.599 183.99 365.699 220.07C371.879 244.4 386.419 264.74 406.619 277.34C423.189 287.62 443.959 293.4 465.109 293.62C506.409 294.05 541.459 274.4 556.569 242.38C573.309 205.07 570.679 161.52 549.699 128.73C530.789 99.1801 500.529 82.7001 464.489 82.3301V82.3201ZM494.169 251.73C488.009 257.85 480.679 261.04 472.979 260.96C464.449 260.87 455.649 256.89 446.769 249.06C428.519 231.37 418.779 200.25 420.709 165.79L420.739 165.39C421.369 141.83 434.359 109.31 457.129 109.55C462.359 109.6 467.849 111.36 473.499 114.82C492.949 127.58 512.079 160.32 510.999 204.65C511.059 223.34 504.609 241.38 494.169 251.74V251.73Z" fill="#302C62"></path><path d="M991.26 244.88C989.25 233.8 990.1 222.31 990.91 211.19L991.18 207.52C993.22 176.93 995.52 142.26 979.83 116.27C966.41 94.4301 943.83 89.6401 927.24 89.4701C911.36 89.3101 893.57 93.2101 876.98 100.53C874.85 101.29 872.87 102.04 871.03 102.73C865 105.01 860.24 106.81 855.96 106.76C853.55 106.74 851.43 106.14 849.46 104.93L849.22 104.78L849.02 104.58C842.26 97.6701 842.75 83.7301 843.19 71.4301C843.29 68.5201 843.39 65.7701 843.38 63.3701C843.23 58.7901 843.76 52.9101 844.33 46.7001C845.91 29.3201 847.86 7.71008 836.13 1.96008C832.59 0.710075 828.61 0.050075 824.3 0.010075C808.84 -0.149925 792.65 7.38008 783.48 13.8701C779.75 16.5201 760 28.7401 773.19 37.4101C780.19 42.0101 783.73 50.7501 783.55 60.3301C783.28 87.2701 782.07 203.07 782.07 203.07C782.04 204.87 782.02 206.67 782 208.47C781.91 216.27 781.81 224.34 780.92 231.94C780.14 240.28 777.33 247.93 774.61 255.34C773.22 259.12 771.78 263.03 770.65 266.95C768.33 274.86 768.59 281.16 771.42 285.7C774.32 290.35 780.11 293.44 788.62 294.89C796.53 296.22 804.7 296.97 812.23 297.05C824.5 297.18 835.09 295.62 843.71 292.44C856.68 287.56 854.09 274.75 849.03 257.19C847.58 252.15 846.2 247.38 845.62 243.22C844.37 236.49 843.66 228.73 843.44 219.47L843.42 214.52C843.31 195.32 843.19 175.46 850.07 157.15C856.52 140.29 872.6 128.64 889.18 128.81C893.38 128.85 897.52 129.65 901.59 131.23C928.7 143.55 929.97 182.86 928.04 215.75C927.35 225.99 926.14 236.04 924.35 246.5C921.64 260.75 917.94 280.26 928.6 288.44C936.66 294.72 948.84 298.25 962.91 298.4C972.88 298.5 988.68 296.97 997.08 294.04C1009.41 289.3 1009.62 280.04 1002.87 272.23C996.83 265.22 992.12 259.86 991.26 244.92V244.88Z" fill="#302C62"></path></g><defs><clipPath id="clip0_10115_21064"><rect width="1227.88" height="382.85" fill="white"></rect></clipPath></defs></svg>